<?xml version="1.0" encoding="UTF-8"?>
<svg width="89px" height="89px" viewBox="0 0 89 89" version="1.1" xmlns="http://www.w3.org/2000/svg" xmlns:xlink="http://www.w3.org/1999/xlink">
    <!-- Generator: Sketch 52.2 (67145) - http://www.bohemiancoding.com/sketch -->
    <title>saab-1</title>
    <desc>Created with Sketch.</desc>
    <g id="Page-1" stroke="none" stroke-width="1" fill="none" fill-rule="evenodd">
        <g id="Menu" transform="translate(-68.000000, -772.000000)">
            <g id="saab-1" transform="translate(69.000000, 773.000000)">
                <path d="M87,43.4997016 C87,67.5204462 67.520188,87 43.5,87 C19.4750377,87 0,67.5204462 0,43.4997016 C0,19.4729888 19.4750377,0 43.5,0 C67.5207847,0 87,19.4729888 87,43.4997016 Z" id="Path" stroke="#FFFFFF" stroke-width="0.816"></path>
                <path d="M21,25 C21.891747,26.8821635 23.5861272,29 26.4395954,29 C28.312203,29 30.5418756,27.9021608 31.7009635,27.9021608 C33.4838471,27.9021608 34.5544317,28.3729701 35,28.7648638 C34.108253,26.961079 32.1465318,26.411891 30.9874439,26.411891 C29.4712909,26.411891 27.7769107,27.1178365 25.5478485,27.1178365 C23.3187862,27.1178365 21.8923573,25.7843243 21,25 Z" id="Path" fill="#FFFFFF"></path>
                <path d="M35.6649719,16.8463655 C34.9717398,17.3692272 34.3645682,18.4143545 34.1912602,19.3724375 C32.8042025,18.588443 31.5032053,18.1532217 30.3761097,18.1532217 C28.0346709,18.1532217 25.259962,19.9823435 25,25.9049301 C27.3408453,24.7727585 28.8151505,24.4245815 29.8555921,24.4245815 C30.7227257,24.4245815 31.3293038,24.59867 31.7631674,25.1209356 C32.803609,26.514836 33.9307046,26.7759688 34.7117778,26.9500573 C35.2317018,27.2111901 36.0988354,27.4723229 36.965969,27.9951846 C35.0589873,30.5206604 33.1508186,31.1305664 31.6765134,31.1305664 C30.1161477,31.1305664 29.075706,30.5206604 27.9480169,29.6496216 C27.7747089,32.8726439 28.901211,34.9634946 32.456993,35.1375831 C30.9832813,37.3148819 30.5494177,40.4508599 30.8960338,43.2374685 C31.8498214,41.3218986 32.803609,40.2761752 34.2779142,39.7539097 C33.2374726,41.4083467 32.716955,43.0639762 32.716955,44.631369 C32.716955,48.5507452 35.6649719,50.9033249 36.6187595,51.6867232 C36.9653755,48.7254299 37.9191632,46.3734465 38.6996428,45.1542307 C39.0462588,50.7286402 38.4396807,55.2579225 37.7458551,57 C41.8215612,56.041917 44.509616,54.4733318 46.4165977,51.9472598 C47.3703854,49.9446457 47.4576329,47.0703967 47.3703854,44.4566842 C48.324173,45.6770924 49.4512686,47.5926622 49.8845387,48.8989223 C52.399879,47.3315295 53.4397271,44.8930979 53.4397271,42.105297 C53.4397271,41.0601697 53.1797651,39.5792249 53.0064571,38.8828709 C53.8735907,39.5792249 54.5680098,40.3632194 55.2612419,41.4959872 L55.7817595,40.3638156 C56.387744,38.9699152 56.6488931,37.4025224 56.6488931,35.9215776 C56.6488931,33.8313231 56.215623,32.0892456 54.9146259,29.9983949 C55.7817595,30.1724834 57.1694107,30.7823894 57.8626427,31.3046549 C58.3831603,27.0365054 57.4293727,23.7270351 54.9146259,21.2009631 C55.4351434,20.2434763 55.955661,19.3724375 56.6488931,17.7168081 C56.4749915,17.5427196 55.955661,17.4556753 55.955661,17.4556753 C55.7817595,17.368631 55.3484894,17.2815868 54.5680098,17.2815868 C53.8735907,17.2815868 52.8337426,17.368631 51.7927074,17.8038523 C51.5327454,17.368631 51.1855359,17.0198578 50.9255738,16.6716808 L55.7817595,5 C53.7008762,5 51.6199929,5.87103875 51.6199929,7.61311626 C51.6199929,8.13597799 51.7927074,8.74528778 52.313225,9.35519376 C52.313225,9.44223802 52.226571,9.44223802 52.1393235,9.44223802 L52.053263,9.44223802 C51.7054599,9.00701674 51.1849423,8.74528778 50.6656118,8.74528778 C49.5379226,8.74528778 48.670789,9.70337079 48.670789,10.7484981 C48.670789,11.8806696 49.5379226,12.7517083 50.6656118,12.7517083 C50.7516723,12.7517083 50.9255738,12.7517083 51.0122278,12.6646641 C49.9711927,13.7097913 48.9313446,14.0585645 47.8903094,14.0585645 C46.0693882,14.0585645 44.5956765,12.6646641 44.335121,11.7936253 C44.682924,12.0547581 45.115007,12.2288466 45.6355246,12.2288466 C46.6765598,12.2288466 47.5436934,11.3578078 47.5436934,10.2256363 C47.5436934,9.18050906 46.6765598,8.22242605 45.6355246,8.22242605 C45.2889086,8.22242605 44.9422925,8.3094703 44.682924,8.48355882 C45.028353,8.13538179 45.2022546,7.61252006 45.2022546,7.09025453 C45.2022546,6.04512726 44.335121,5.17408851 43.2952728,5.17408851 C42.1675837,5.17408851 41.3004501,6.04512726 41.3004501,7.09025453 C41.3004501,7.70016051 41.5604121,8.22242605 41.9076217,8.57119927 C41.6476596,8.39711075 41.2137961,8.22302224 40.86718,8.22302224 C39.7400844,8.22302224 38.8729508,9.18110525 38.8729508,10.2262325 C38.8729508,11.358404 39.7400844,12.2294428 40.86718,12.2294428 C41.3004501,12.2294428 41.7343136,12.0553543 41.9948692,11.8812658 C41.2143896,13.4486586 39.8267384,13.884476 38.5257412,13.884476 C36.964782,13.884476 35.5777243,13.1875258 35.4910703,12.6646641 C35.5777243,12.7517083 35.7510324,12.7517083 35.8376864,12.7517083 C36.964782,12.7517083 37.8325091,11.8806696 37.8325091,10.7484981 C37.8325091,9.70337079 36.964782,8.74528778 35.8376864,8.74528778 C35.3177623,8.74528778 34.7972447,9.00642055 34.4506287,9.44223802 L34.3639747,9.44223802 C34.2773207,9.44223802 34.2773207,9.44223802 34.2773207,9.35519376 C34.7105907,8.74588397 34.8838987,8.13597799 34.8838987,7.61311626 C34.8838987,5.87103875 32.8030155,5 30.7221322,5 L35.6649719,16.8463655 Z" id="Path" fill="#FFFFFF"></path>
                <path d="M38.1836849,21 C38.4284118,21 38.7552731,21 39,21.0908525 C38.6736974,22.7274424 37.6120967,23 36.8773572,23 C35.9794664,23 35,22.5457374 35,21 C35.1631513,21.0908525 35.4078782,21.0908525 35.5710295,21.0908525 C35.7341808,21.5457374 36.061042,22.0914748 36.8767984,22.0914748 C37.694231,22.0914748 38.1021092,21.4548849 38.1836849,21 Z" id="Path" fill="#000000"></path>
                <path d="M34.6811844,21.0255999 C34.5026802,22.2712919 35.0381929,24.4958723 37.9853469,24.4958723 C39.0569837,24.4958723 40.7539966,23.9622654 41.2901207,21.6481413 C41.4686249,21.6481413 41.6471292,21.7370758 41.8256334,21.8260103 C42.0933898,21.5592068 42.271894,21.2917942 42.4503983,20.8471218 C41.4686249,20.2245804 39.8608641,20.1356459 38.8778681,20.1356459 C38.2531033,20.1356459 37.7169792,20.2245804 37.1814665,20.2245804 C36.7352059,20.2245804 36.1990818,20.1356459 35.8420733,20.0467114 C36.1098297,18.9788885 36.5560903,18 37.0922143,18 L51.560228,18 C51.6494801,18.0889345 51.8285957,18.2674126 51.8285957,18.4446724 C50.4879799,19.2456919 49.2378388,20.4030585 48.1668134,21.8266194 C48.3447063,22.0934229 48.7921895,22.44977 49.149198,22.6276389 C51.6494801,19.3346264 54.4181299,18.7114759 56.1151428,18.8010195 C53.5256086,24.051809 48.4345697,25.9206515 44.2372747,26.3653239 C47.8098049,27.6999503 50.2208348,29.7472709 47.8984457,33.6628248 C47.0951766,31.7050478 45.9342877,30.5482904 43.7011506,29.3909238 C45.219048,33.9296283 44.0581591,36.4216213 42.6295139,37.8451822 C42.5402617,36.8662937 42.1832532,34.7306478 41.5584884,33.2175432 C40.9331122,34.1074972 40.2184839,34.9085167 39.5038556,35.4427328 C39.4146035,35.9763397 39.5038556,36.7773592 39.5931077,37.1330972 C40.1286205,36.7773592 40.6647445,36.3326868 40.9325009,35.9763397 C41.2002573,37.3109661 41.4686249,38.7351362 41.2901207,40.3371752 C45.488027,38.3793982 45.9342877,34.6411041 45.7551721,32.6839363 C46.7375568,33.8406938 47.1844287,35.1759293 47.4515737,36.6884247 C50.3993391,33.1286088 51.2924716,29.4798583 48.1668134,26.9878653 C51.7393435,25.7421733 53.5256086,24.4958723 55.4011258,22.3602263 C57.5443994,24.4958723 58.0805235,27.2546687 57.99066,29.5687928 C56.740519,29.1241204 55.4891553,28.7677733 53.2578523,28.7677733 C54.6858862,30.1023997 56.6512669,32.6839363 56.6512669,36.3326868 C56.6512669,37.3999006 56.4721513,38.3793982 56.2050063,39.3582867 C54.9548652,38.0230512 53.5256086,37.3109661 51.9172365,36.6884247 C52.6324761,38.3793982 53.3464931,40.3371752 53.3464931,42.7402337 C53.3464931,44.7869452 52.7223395,46.3895933 51.560228,47.5457416 C50.6670954,45.6768992 48.9706938,43.3633843 46.9166723,42.1170832 C47.2736808,45.8547681 47.1844287,50.3934726 46.2912962,52.0844461 C44.682924,54.1305484 42.718766,55.1989805 40.485629,56 C40.9318896,53.685876 41.2895094,47.8137634 40.485629,42.4728211 C39.2354879,43.6301877 37.2701073,46.032028 36.4668382,49.8592565 C35.7528212,49.0588462 34.6805731,47.7236106 34.6805731,45.3205521 C34.6805731,43.006428 35.9307141,40.6929131 38.074599,38.3787891 C36.2883339,38.4677236 34.591321,38.734527 32.894308,39.980219 C33.2513165,37.0435535 34.8590773,35.1747111 36.7345945,33.750541 C34.9483295,34.1068881 34.0551969,34.2841479 33.1620644,34.2841479 C32.0011755,34.2841479 30.5719189,33.92841 30.1256582,32.5042399 C30.6617823,32.6821089 31.4650514,32.8599779 32.2689318,32.8599779 C34.1450603,32.8599779 36.4668382,32.0595675 38.788616,28.944424 C39.0563724,28.6776205 39.1456245,28.4102079 39.1456245,28.2323389 C39.1456245,27.0755815 36.7345945,26.1856275 35.3053379,25.8292804 C35.1268337,25.7403459 34.1450603,25.562477 33.4298207,24.4940449 C32.6265516,23.6936345 31.6435556,23.3372874 30.3934146,23.3372874 C29.4110299,23.3372874 28.3393932,23.6040909 27,24.0493724 C27.3570085,22.3583989 28.3393932,19.6885369 30.9295387,19.6885369 C32.0017868,19.6903644 33.2519278,20.1356459 34.6811844,21.0255999 Z" id="Path" fill="#111111"></path>
                <path d="M29.7325899,63.0285838 L24.496941,63.0285838 C24.496941,61.5635303 23.6094503,61.3811819 22.3665987,61.3811819 C21.2130429,61.3811819 20.5035363,61.747132 20.5035363,62.5705196 C20.5035363,63.4860214 21.1243546,63.7611106 22.9880245,63.7611106 C27.6915434,63.7611106 29.7325899,64.6766124 30.0879507,66.873566 L33.1051764,59.182975 L39.7610535,59.182975 L43.0449516,67.4231177 L46.3282423,59.182975 L52.9841194,59.182975 L56.6227709,68.3386195 L56.6227709,59.182975 L67.2720528,59.182975 C69.9345251,59.182975 70.6452467,61.1975803 70.6452467,62.2966837 C70.6452467,63.3945339 70.201805,64.8595874 68.1607585,65.1334233 C70.4672626,65.4085125 71,67.2395161 71,68.3386195 C71,69.6200713 70.1125092,71.7249108 67.7173168,71.7249108 L53.3394802,71.7249108 L52.5400703,69.7115589 L46.6836031,69.7115589 L45.8841932,71.7249108 L40.2044952,71.7249108 L39.4063002,69.7115589 L33.4599297,69.7115589 L32.7498156,71.7249108 L28.1343776,71.7249108 L28.5784267,70.6270606 C27.86892,71.2668466 26.6260685,72 22.5433679,72 C18.5499631,72 15.0886883,71.1753591 15,67.7884411 L20.2362563,67.7884411 C20.2362563,68.6118288 20.7683863,69.4358431 22.4546796,69.4358431 C24.4957261,69.4358431 24.6731028,68.7039429 24.6731028,68.2465054 C24.6731028,67.4231177 24.1409728,66.873566 21.6558771,66.873566 C18.0172257,66.873566 15.4434417,66.2325268 15.4434417,63.2115589 C15.4434417,59.7319001 19.2600772,59 22.3659912,59 C26.1826268,59.0006266 29.7325899,59.6422925 29.7325899,63.0285838 Z M51.4758103,66.7820785 L49.6121404,62.2045696 L47.8371588,66.7820785 L51.4758103,66.7820785 Z M38.2521369,66.7820785 L36.4771554,62.2045696 L34.6134855,66.7820785 L38.2521369,66.7820785 Z M65.5857595,63.120698 C65.5857595,62.5711462 65.2310062,62.2051962 64.7875645,62.2051962 L60.9721439,62.2051962 L60.9721439,64.0361997 L64.7875645,64.0361997 C65.2310062,64.0361997 65.5857595,63.5781355 65.5857595,63.120698 Z M65.054237,68.4294804 C65.4970712,68.4294804 65.852432,68.0635303 65.852432,67.5139786 C65.85308,67.2953984 65.7691928,67.0855779 65.6193615,66.9310176 C65.4695302,66.7764574 65.2661295,66.6899225 65.054237,66.690591 L60.9715364,66.6905871 L60.9715364,68.4294804 L65.054237,68.4294804 Z" id="Shape" fill="#FFFFFF"></path>
                <polygon id="Path" fill="#000000" points="50.4027915 17 36.5984437 17 36 15 51 15"></polygon>
            </g>
        </g>
    </g>
</svg>