<?xml version="1.0" encoding="UTF-8"?>
<svg width="40px" height="40px" viewBox="0 0 40 40" version="1.1" xmlns="http://www.w3.org/2000/svg" xmlns:xlink="http://www.w3.org/1999/xlink">
    <!-- Generator: Sketch 52.4 (67378) - http://www.bohemiancoding.com/sketch -->
    <title>button/instagram_hover</title>
    <desc>Created with Sketch.</desc>
    <g id="Page-1" stroke="none" stroke-width="1" fill="none" fill-rule="evenodd">
        <g id="Desktop-HD" transform="translate(-237.000000, -217.000000)">
            <g id="Group-6-Copy-3" transform="translate(93.000000, 217.000000)">
                <g id="button/instagram_hover" transform="translate(144.000000, 0.000000)">
                    <g id="Group-4">
                        <rect id="Rectangle-Copy-11" stroke="#F3F3F3" x="0.5" y="0.5" width="39" height="39"></rect>
                        <path d="M20,10.163 C23.204,10.163 23.584,10.175 24.85,10.233 C28.102,10.381 29.621,11.924 29.769,15.152 C29.827,16.417 29.838,16.797 29.838,20.001 C29.838,23.206 29.826,23.585 29.769,24.85 C29.62,28.075 28.105,29.621 24.85,29.769 C23.584,29.827 23.206,29.839 20,29.839 C16.796,29.839 16.416,29.827 15.151,29.769 C11.891,29.62 10.38,28.07 10.232,24.849 C10.174,23.584 10.162,23.205 10.162,20 C10.162,16.796 10.175,16.417 10.232,15.151 C10.381,11.924 11.896,10.38 15.151,10.232 C16.417,10.175 16.796,10.163 20,10.163 Z M20,8 C16.741,8 16.333,8.014 15.053,8.072 C10.695,8.272 8.273,10.69 8.073,15.052 C8.014,16.333 8,16.741 8,20 C8,23.259 8.014,23.668 8.072,24.948 C8.272,29.306 10.69,31.728 15.052,31.928 C16.333,31.986 16.741,32 20,32 C23.259,32 23.668,31.986 24.948,31.928 C29.302,31.728 31.73,29.31 31.927,24.948 C31.986,23.668 32,23.259 32,20 C32,16.741 31.986,16.333 31.928,15.053 C31.732,10.699 29.311,8.273 24.949,8.073 C23.668,8.014 23.259,8 20,8 Z M20,13.838 C16.597,13.838 13.838,16.597 13.838,20 C13.838,23.403 16.597,26.163 20,26.163 C23.403,26.163 26.162,23.404 26.162,20 C26.162,16.597 23.403,13.838 20,13.838 Z M20,24 C17.791,24 16,22.21 16,20 C16,17.791 17.791,16 20,16 C22.209,16 24,17.791 24,20 C24,22.21 22.209,24 20,24 Z M26.406,12.155 C25.61,12.155 24.965,12.8 24.965,13.595 C24.965,14.39 25.61,15.035 26.406,15.035 C27.201,15.035 27.845,14.39 27.845,13.595 C27.845,12.8 27.201,12.155 26.406,12.155 Z" id="Shape-Copy-6" fill="#F3F3F3" fill-rule="nonzero"></path>
                    </g>
                </g>
            </g>
        </g>
    </g>
</svg>