<?xml version="1.0" encoding="UTF-8"?>
<svg width="40px" height="40px" viewBox="0 0 40 40" version="1.1" xmlns="http://www.w3.org/2000/svg" xmlns:xlink="http://www.w3.org/1999/xlink">
    <!-- Generator: Sketch 52.4 (67378) - http://www.bohemiancoding.com/sketch -->
    <title>button/twitter_hover</title>
    <desc>Created with Sketch.</desc>
    <g id="Page-1" stroke="none" stroke-width="1" fill="none" fill-rule="evenodd">
        <g id="Desktop-HD" transform="translate(-189.000000, -217.000000)">
            <g id="Group-6-Copy-3" transform="translate(93.000000, 217.000000)">
                <g id="button/twitter_hover" transform="translate(96.000000, 0.000000)">
                    <g id="Group-3">
                        <rect id="Rectangle-Copy-9" stroke="#F3F3F3" x="0.5" y="0.5" width="39" height="39"></rect>
                        <path d="M32.532404,12.3602217 C31.629816,12.7609176 30.6597638,13.0307741 29.6416691,13.1524139 C30.6812297,12.5299042 31.479555,11.5434971 31.8546963,10.3679861 C30.8825998,10.9444976 29.8052184,11.3635928 28.6583285,11.5894953 C27.7414299,10.6112657 26.4320129,10 24.984601,10 C21.7350797,10 19.347259,13.0317963 20.0811868,16.1790993 C15.8994341,15.9695516 12.1909523,13.966072 9.70806863,10.9209873 C8.38945191,13.1830794 9.02422787,16.1423007 11.2648541,17.6408217 C10.4409742,17.6142449 9.66411474,17.3883423 8.98640708,17.0111566 C8.93120917,19.3427572 10.6024792,21.5240968 13.0230097,22.0096339 C12.3146366,22.2018044 11.5387993,22.2467805 10.7496736,22.0954974 C11.3895605,24.0948883 13.2478901,25.5494554 15.4517177,25.5903427 C13.3357979,27.2493466 10.6699433,27.9904296 8,27.6755971 C10.2273378,29.1035874 12.8737709,29.936667 15.7154411,29.936667 C25.0602426,29.936667 30.3398204,22.0443882 30.0208991,14.9657674 C31.0042397,14.2553499 31.8577629,13.3691168 32.532404,12.3602217 Z" id="Path-Copy" fill="#F3F3F3"></path>
                    </g>
                </g>
            </g>
        </g>
    </g>
</svg>