<svg xmlns="http://www.w3.org/2000/svg" xmlns:xlink="http://www.w3.org/1999/xlink" viewBox="0 0 87.82 87.82"><defs><style>.cls-1,.cls-2,.cls-5{fill:none;}.cls-2{clip-rule:evenodd;}.cls-3{clip-path:url(#clip-path);}.cls-4{clip-path:url(#clip-path-2);}.cls-5{stroke:#fff;stroke-miterlimit:10;stroke-width:0.82px;}.cls-6{clip-path:url(#clip-path-3);}.cls-7{fill:#fff;}.cls-8{clip-path:url(#clip-path-5);}.cls-9{clip-path:url(#clip-path-7);}.cls-10{fill:#010101;}.cls-11{clip-path:url(#clip-path-9);}.cls-12{fill:#111;}.cls-13{clip-path:url(#clip-path-11);}.cls-14{clip-path:url(#clip-path-13);}</style><clipPath id="clip-path" transform="translate(-68.59 -772.59)"><rect class="cls-1" x="43.72" y="722.68" width="130.92" height="189.36"/></clipPath><clipPath id="clip-path-2" transform="translate(-68.59 -772.59)"><rect class="cls-1" width="222" height="896"/></clipPath><clipPath id="clip-path-3" transform="translate(-68.59 -772.59)"><path class="cls-2" d="M90,798c.89,1.88,2.59,4,5.44,4,1.87,0,4.1-1.1,5.26-1.1a5.22,5.22,0,0,1,3.3.86,4.54,4.54,0,0,0-4-2.35c-1.52,0-3.21.71-5.44.71A6.73,6.73,0,0,1,90,798Z"/></clipPath><clipPath id="clip-path-5" transform="translate(-68.59 -772.59)"><path class="cls-2" d="M104.66,789.85a4.35,4.35,0,0,0-1.47,2.52,8.13,8.13,0,0,0-3.81-1.22c-2.35,0-5.12,1.83-5.38,7.75a11.74,11.74,0,0,1,4.86-1.48,2.25,2.25,0,0,1,1.9.7,4.49,4.49,0,0,0,2.95,1.83,20.92,20.92,0,0,1,2.26,1c-1.91,2.52-3.82,3.13-5.29,3.13A5.73,5.73,0,0,1,97,802.65c-.18,3.22,1,5.31,4.51,5.49a12.2,12.2,0,0,0-1.56,8.1c.95-1.92,1.9-3,3.38-3.49a9.23,9.23,0,0,0-1.56,4.88c0,3.92,2.94,6.27,3.9,7.06a16.47,16.47,0,0,1,2.08-6.54c.35,5.58-.26,10.11-1,11.85,4.07-1,6.76-2.53,8.67-5,1-2,1-4.88,1-7.49a17.53,17.53,0,0,1,2.51,4.44,7.54,7.54,0,0,0,3.56-6.79,16.43,16.43,0,0,0-.43-3.23,9.62,9.62,0,0,1,2.25,2.62l.52-1.14a11.19,11.19,0,0,0,.87-4.44,10.31,10.31,0,0,0-1.74-5.92,8.89,8.89,0,0,1,3,1.3c.52-4.26-.43-7.57-3-10.1a30,30,0,0,0,1.74-3.48,1.65,1.65,0,0,0-.69-.26,3.59,3.59,0,0,0-1.39-.18,7.38,7.38,0,0,0-2.78.52,13.87,13.87,0,0,0-.86-1.13L124.78,778c-2.08,0-4.16.87-4.16,2.61a2.65,2.65,0,0,0,.69,1.75c0,.08-.08.08-.17.08h-.09a1.81,1.81,0,0,0-1.38-.69,2,2,0,0,0-2,2,2,2,0,0,0,2,2,.49.49,0,0,0,.34-.09,4.22,4.22,0,0,1-3.12,1.4,4,4,0,0,1-3.55-2.27,2.12,2.12,0,0,0,1.3.44,1.94,1.94,0,0,0,1.9-2,2,2,0,0,0-1.9-2,1.79,1.79,0,0,0-1,.26,2,2,0,0,0,.52-1.39,1.93,1.93,0,0,0-1.9-1.92,2,2,0,0,0-2,1.92,2.1,2.1,0,0,0,.61,1.48,2.19,2.19,0,0,0-1-.35,2,2,0,0,0-2,2,2,2,0,0,0,2,2,2.09,2.09,0,0,0,1.12-.35,3.58,3.58,0,0,1-3.46,2c-1.57,0-3-.69-3-1.22a.51.51,0,0,0,.35.09,2,2,0,0,0,2-2,2,2,0,0,0-2-2,1.83,1.83,0,0,0-1.39.69h-.09c-.08,0-.08,0-.08-.08a3,3,0,0,0,.6-1.75c0-1.74-2.08-2.61-4.16-2.61Z"/></clipPath><clipPath id="clip-path-7" transform="translate(-68.59 -772.59)"><path class="cls-2" d="M107.18,794a2.52,2.52,0,0,1,.82.09,2,2,0,0,1-2.12,1.91,1.77,1.77,0,0,1-1.88-2,1.26,1.26,0,0,0,.57.09,1.34,1.34,0,0,0,2.61-.09Z"/></clipPath><clipPath id="clip-path-9" transform="translate(-68.59 -772.59)"><path class="cls-2" d="M103.68,794c-.18,1.24.36,3.47,3.31,3.47a3.33,3.33,0,0,0,3.3-2.85,1.28,1.28,0,0,1,.54.18,2.85,2.85,0,0,0,.62-1,7.26,7.26,0,0,0-3.57-.71c-.63,0-1.16.08-1.7.08a6.13,6.13,0,0,1-1.34-.17c.27-1.07.72-2,1.25-2h14.47c.09.09.27.27.27.44a13.1,13.1,0,0,0-3.66,3.39,3,3,0,0,0,1,.8c2.5-3.3,5.27-3.92,7-3.83-2.59,5.25-7.69,7.12-11.88,7.57,3.57,1.33,6,3.38,3.66,7.29a7.87,7.87,0,0,0-4.2-4.27c1.52,4.54.36,7-1.07,8.46a18.84,18.84,0,0,0-1.07-4.63,9.87,9.87,0,0,1-2.06,2.22,5,5,0,0,0,.09,1.69,5.9,5.9,0,0,0,1.34-1.15,13.62,13.62,0,0,1,.36,4.36,7.46,7.46,0,0,0,4.47-7.66,8.14,8.14,0,0,1,1.69,4c3-3.56,3.84-7.21.72-9.7a15,15,0,0,0,7.23-4.63,9.44,9.44,0,0,1,2.59,7.21,12.51,12.51,0,0,0-4.73-.8,10.39,10.39,0,0,1,3.39,7.56,11.61,11.61,0,0,1-.44,3,10.84,10.84,0,0,0-4.29-2.67,15.18,15.18,0,0,1,1.43,6,6.52,6.52,0,0,1-1.79,4.81,13.4,13.4,0,0,0-4.64-5.43c.35,3.73.26,8.27-.63,10a12.07,12.07,0,0,1-5.8,3.92,48.07,48.07,0,0,0,0-13.53,13.94,13.94,0,0,0-4,7.39,6.35,6.35,0,0,1-1.79-4.54c0-2.31,1.25-4.63,3.39-6.94a8.86,8.86,0,0,0-5.18,1.6,8.94,8.94,0,0,1,3.84-6.23,18.48,18.48,0,0,1-3.57.53,2.88,2.88,0,0,1-3-1.78,7.06,7.06,0,0,0,2.14.36c1.88,0,4.2-.8,6.52-3.92a1,1,0,0,0,.36-.71c0-1.15-2.42-2-3.84-2.4a3.38,3.38,0,0,1-1.88-1.34,4,4,0,0,0-3-1.15,10.88,10.88,0,0,0-3.39.71c.36-1.69,1.34-4.36,3.93-4.36A7.4,7.4,0,0,1,103.68,794Z"/></clipPath><clipPath id="clip-path-11" transform="translate(-68.59 -772.59)"><path class="cls-2" d="M134.05,841.43a.84.84,0,0,0,.8-.92.85.85,0,0,0-.23-.58.8.8,0,0,0-.57-.24H130v1.74Zm.54-5.31a.83.83,0,0,0-.8-.91H130V837h3.82A.9.9,0,0,0,134.59,836.12Zm-27.34,3.66-1.77-4.58-1.87,4.58Zm13.23,0-1.87-4.58-1.77,4.58ZM98.73,836H93.5c0-1.47-.89-1.65-2.13-1.65s-1.87.37-1.87,1.19.62,1.19,2.49,1.19c4.7,0,6.74.92,7.1,3.11l3-7.69h6.65l3.28,8.24,3.29-8.24H122l3.64,9.16v-9.16h10.65a3.12,3.12,0,0,1,3.38,3.12,2.64,2.64,0,0,1-2.49,2.83,3.07,3.07,0,0,1,2.84,3.21,3.3,3.3,0,0,1-3.28,3.38H122.34l-.8-2h-5.86l-.8,2H109.2l-.79-2h-6l-.71,2H97.13l.45-1.09c-.71.64-2,1.37-6,1.37s-7.45-.82-7.54-4.21h5.24c0,.82.53,1.65,2.21,1.65,2,0,2.22-.74,2.22-1.19,0-.83-.53-1.38-3-1.38-3.64,0-6.22-.64-6.22-3.66,0-3.48,3.82-4.21,6.93-4.21C95.18,832,98.73,832.64,98.73,836Z"/></clipPath><clipPath id="clip-path-13" transform="translate(-68.59 -772.59)"><polygon class="cls-2" points="119.4 790 105.6 790 105 788 120 788 119.4 790"/></clipPath></defs><title>Saab logo</title><g id="Layer_2" data-name="Layer 2"><g id="Layer_1-2" data-name="Layer 1"><g class="cls-3"><g class="cls-4"><path class="cls-5" d="M156,816.5A43.5,43.5,0,1,1,112.5,773,43.51,43.51,0,0,1,156,816.5Z" transform="translate(-68.59 -772.59)"/></g><g class="cls-6"><g class="cls-4"><rect class="cls-7" x="16.41" y="20.41" width="24" height="14"/></g></g><g class="cls-8"><g class="cls-4"><rect class="cls-7" x="20.41" y="0.41" width="43" height="62"/></g></g><g class="cls-9"><g class="cls-4"><rect class="cls-10" x="30.41" y="16.41" width="14" height="12"/></g></g><g class="cls-11"><g class="cls-4"><rect class="cls-12" x="22.41" y="13.41" width="41" height="48"/></g></g><g class="cls-13"><g class="cls-4"><rect class="cls-7" x="10.41" y="54.41" width="66" height="23"/></g></g><g class="cls-14"><g class="cls-4"><rect class="cls-10" x="31.41" y="10.41" width="25" height="12"/></g></g></g></g></g></svg>